<svg xmlns="http://www.w3.org/2000/svg" width="172.996" height="85.891" viewBox="0 0 172.996 85.891"><defs><style>.cls-1{fill:#fff;}</style></defs><g id="Layer_2" data-name="Layer 2"><g id="Layer_1-2" data-name="Layer 1"><path class="cls-1" d="M108.6,66.736A17.359,17.359,0,1,1,91.3,49.32,17.358,17.358,0,0,1,108.6,66.736ZM81.351,76.5l.182.176c.916-.427,1.847-.824,2.743-1.291a1.356,1.356,0,0,1,1.583.091,10.269,10.269,0,0,0,7.656,1.592,10.528,10.528,0,1,0-10.936-4.932,1.779,1.779,0,0,1,.072,1.3C82.284,74.475,81.793,75.477,81.351,76.5Z"/><path class="cls-1" d="M5.756,37.039a3.958,3.958,0,0,1-4,.909A2.514,2.514,0,0,1,.023,35.093a16.212,16.212,0,0,1,1.182-4.831c2.057-4.486,4.382-8.848,6.477-13.317,1.453-3.1,2.708-6.294,4.027-9.457A8.526,8.526,0,0,0,12.134,5.9c.4-1.943.013-2.795-1.691-3.758.072-.775.687-1.06,1.291-1.242C13.58.344,15.4.529,16.633,2.064a15.2,15.2,0,0,1,2.335,4.172c3.2,8.612,6.275,17.271,9.468,25.885a7.533,7.533,0,0,0,1.88,2.733,4.28,4.28,0,0,0,2.176.686c.605.1.831.323.823.918-.007.562-.24.821-.8.821q-4.994,0-9.988,0c-.607,0-.73-.338-.731-.862s.144-.8.737-.865c2.186-.236,2.516-.784,1.789-2.881-.741-2.137-1.523-4.261-2.238-6.407a1.137,1.137,0,0,0-1.276-.888c-4.187.024-8.375,0-12.562.039a1.455,1.455,0,0,0-1.135.6c-.9,2.254-1.817,4.514-2.488,6.842A4.009,4.009,0,0,0,5.756,37.039ZM20.681,22.261,15.445,7.6l-6.5,14.665Z"/><path class="cls-1" d="M36.855,40.517c1.275,3.677,3.13,5.134,6.358,5.306,5.319.285,8.192-3.449,8.393-7.9.234-5.166.221-10.358.019-15.528-.223-5.7-4.934-9.064-10.348-7.673a7.06,7.06,0,0,0-4.537,3.315,12.021,12.021,0,0,0-.529,12.079,7.382,7.382,0,0,0,7.94,4.315,10.015,10.015,0,0,0,2.943-1.1c.792-.379,1.274-.271,1.575.563A1.769,1.769,0,0,1,47.491,36.2a15.752,15.752,0,0,1-4.2.807A11.64,11.64,0,0,1,31.7,28.843c-1.747-5.5.159-11.88,4.5-14.731a12.643,12.643,0,0,1,11.431-1.4,20.7,20.7,0,0,1,3.851,2.241c.442-.637.843-1.691,1.605-2.173a6.655,6.655,0,0,1,2.866-.544,15.042,15.042,0,0,1,2.775.024c.264.027.6.439.678.733.04.154-.432.641-.65.627-3.238-.205-3.523,1.612-3.543,4.051-.052,6.24-.024,12.481-.016,18.722a13.426,13.426,0,0,1-1.538,6.434,9.587,9.587,0,0,1-6.151,4.959,15.778,15.778,0,0,1-9.423-.393,6.472,6.472,0,0,1-3.365-2.432A2.738,2.738,0,0,1,36.855,40.517Z"/><path class="cls-1" d="M138.593,14.808V7.455c0-1,.012-1.989,0-2.984-.037-2.2-.773-2.934-2.981-2.993-.53-.014-1.227.116-1.1-.762.04-.271.39-.709.6-.71a42,42,0,0,1,4.722.144,2.494,2.494,0,0,1,2.227,2.134,11.66,11.66,0,0,1,.234,2.343c.015,9.122,0,18.244.021,27.366a6.7,6.7,0,0,0,.254,1.92,2.371,2.371,0,0,0,2.521,1.848c.274.008.595-.075.812.04.274.146.672.487.639.68-.049.292-.41.738-.663.755a21.592,21.592,0,0,1-3.393,0,3.922,3.922,0,0,1-3.884-4.3c-.015-3.326.119-6.659-.056-9.977A13.668,13.668,0,0,0,137.4,17.9c-2.135-4.5-8.6-5.332-12.29-1.732-4.265,4.163-4.325,13.022-.117,17.208a7.019,7.019,0,0,0,9.613.5c.129-.1.272-.189.4-.277,1.244,1.18,1.133,2.477-.275,3.3a4.684,4.684,0,0,1-1.24.485c-7.108,1.712-12.766-1.616-14.677-7.866-1.712-5.6-.927-10.855,3.489-15.067,4.12-3.93,12.579-3.709,15.845.083A2.518,2.518,0,0,0,138.593,14.808Z"/><path class="cls-1" d="M115.172,54.107c.817-.836,1.448-1.607,2.2-2.23a10.491,10.491,0,0,1,12.381-.448c2.257,1.635,3.2,4.038,3.719,6.657A15.273,15.273,0,0,1,131.9,69.028a10.1,10.1,0,0,1-11.436,5.078,5.154,5.154,0,0,1-2.105-1.163,1.981,1.981,0,0,1-.382-1.566c.2-1.135.683-1.247,1.552-.495a6,6,0,0,0,8.906-1.666,14.423,14.423,0,0,0,1.765-4.869,14.947,14.947,0,0,0-.852-8.281c-2.075-5.1-7.446-5.012-10.618-2.268a9.94,9.94,0,0,0-3.668,7.935c.047,5.828.009,11.657.015,17.486,0,2.413.938,3.344,3.354,3.405.478.012,1.121-.174,1.143.644.022.842-.612.769-1.159.77q-4.479.008-8.958,0c-.5,0-1.1.1-1.1-.7s.58-.686,1.085-.722a2.165,2.165,0,0,0,2.126-1.868,6.222,6.222,0,0,0,.064-1.127q.006-12.6,0-25.2a6.7,6.7,0,0,0-.074-1.228,2.114,2.114,0,0,0-2.219-1.879,3.338,3.338,0,0,1-1.018-.056c-.248-.1-.559-.433-.555-.658a.863.863,0,0,1,.57-.632,25.97,25.97,0,0,1,4,.059,2.843,2.843,0,0,1,2.63,2.826C115.013,53.208,115.081,53.565,115.172,54.107Z"/><path class="cls-1" d="M35.659,55.881c.931-.889,1.689-1.735,2.566-2.429,4.534-3.589,13.819-2.895,15.64,5.571,1.06,4.929.643,9.54-2.675,13.6a9.955,9.955,0,0,1-10.7,3.143,4.632,4.632,0,0,1-1.111-.524c-1.215-.811-1.229-2.2.006-3.189A14.724,14.724,0,0,0,40.8,73.166a5.964,5.964,0,0,0,7.635-1.328,11.581,11.581,0,0,0,2.526-8.462,19.022,19.022,0,0,0-1.132-5.6c-1.457-3.794-5.29-5.141-8.894-3.227a9.407,9.407,0,0,0-5.3,8.569c-.1,5.93-.029,11.862-.025,17.793,0,2.443.962,3.433,3.4,3.54.272.012.62-.034.792.112.19.162.373.616.279.76a1.2,1.2,0,0,1-.833.518c-2.608.04-5.216.026-7.824.026a8.886,8.886,0,0,1-1.642-.037c-.281-.054-.507-.4-.758-.612.242-.255.451-.682.732-.737,1.864-.362,2.484-1.008,2.526-2.985.046-2.125.015-4.251.016-6.377V57.33c0-.343.007-.686-.009-1.029-.117-2.493-.72-3.093-3.191-3.325-.3-.029-.568-.4-.85-.612.289-.2.568-.559.871-.581,1.024-.074,2.057-.039,3.086-.028A3.116,3.116,0,0,1,35.6,55.043C35.613,55.279,35.634,55.515,35.659,55.881Z"/><path class="cls-1" d="M162.3,33.074c1.218.712,1.494,1.833.634,2.849a3.5,3.5,0,0,1-1.574,1.085,11.974,11.974,0,0,1-9.018-.538,6.407,6.407,0,0,1-3.821-6.2,6.535,6.535,0,0,1,3.968-6.223,17.747,17.747,0,0,1,6.687-1.5c1.883-.1,3.771-.144,5.656-.141.839,0,1.207-.275,1.13-1.13-.127-1.4-.1-2.819-.362-4.189a4.156,4.156,0,0,0-3.721-3.614,12.816,12.816,0,0,0-4.465.153,5.219,5.219,0,0,0-4.016,4.7c-.148.961-.395,1.095-1.278.683-1.494-.7-1.918-2.871-.879-4.583a6.344,6.344,0,0,1,3.17-2.518,14.97,14.97,0,0,1,6.66-1c.514.03,1.027.083,1.535.162,4.442.692,6.833,3.478,6.871,8.081.033,4.046,0,8.092.016,12.138a12.731,12.731,0,0,0,.172,2.146,2.344,2.344,0,0,0,2.513,2.322c.528.053.818.189.814.789,0,.628-.35.76-.856.737-1.1-.051-2.2-.034-3.284-.19a3.242,3.242,0,0,1-2.879-3.456c-.039-2.537-.054-5.075,0-7.611.024-1.006-.323-1.337-1.3-1.265-2.424.178-4.857.247-7.276.474a7.087,7.087,0,0,0-2.326.776,4.808,4.808,0,0,0-2.63,5.766,4.718,4.718,0,0,0,4.7,3.574A6.432,6.432,0,0,0,162.3,33.074Z"/><path class="cls-1" d="M69.014,26.415c-1.114-1.484-.606-2.9,1.389-3.033,2.871-.185,5.756-.163,8.635-.2,2.019-.028,2.231-.236,2.123-2.282-.2-3.786-2.315-6.656-5.446-7.391A7.948,7.948,0,0,0,66.6,17.461c-2.515,4.741-2.791,9.581.183,14.257,3.692,5.806,11.331,4.174,13.984.409a.3.3,0,0,1,.063-.081c.452-.3.421-1.328,1.331-.928a2,2,0,0,1,1.106,2.221,6.913,6.913,0,0,1-1.618,2.4,7.43,7.43,0,0,1-2.628,1.348,17.3,17.3,0,0,1-8.036.584,11.017,11.017,0,0,1-8.941-7.332A15.777,15.777,0,0,1,62.7,17.273C64.943,12.66,69.8,10.336,75.484,11c6.158.717,9.816,5.832,9.235,11.964-.189,1.991-.959,2.607-2.967,2.65-2.914.062-5.831.042-8.742.174A35.809,35.809,0,0,0,69.014,26.415Z"/><path class="cls-1" d="M94.512,15.645c.484-.506.874-.929,1.28-1.334a11.018,11.018,0,0,1,12.121-2.151,7.523,7.523,0,0,1,4.5,7.067c.118,4.179.034,8.364.059,12.547a7.368,7.368,0,0,0,.212,1.827,2.7,2.7,0,0,0,2.767,2.151c.542.044.918.121.906.8-.013.725-.473.73-.973.725-.789-.008-1.581.011-2.366-.049-2.718-.209-4.072-1.637-4.1-4.394-.033-3.668,0-7.337-.02-11a20.063,20.063,0,0,0-.216-2.867c-.663-4.364-4.849-6.449-8.989-4.438-3.19,1.549-4.638,4.394-4.907,7.711-.3,3.647-.225,7.327-.214,10.992,0,1.725.683,2.287,2.409,2.567a1.035,1.035,0,0,1,.7.72,1,1,0,0,1-.683.724q-4.529.078-9.059,0a1.007,1.007,0,0,1-.7-.707c-.007-.249.388-.589.683-.742.247-.128.606-.023.913-.055A2.285,2.285,0,0,0,91,33.434q.028-8.64,0-17.28a2.387,2.387,0,0,0-2.525-2.639,2.084,2.084,0,0,1-.711-.044c-.229-.115-.563-.4-.536-.557.042-.251.342-.649.538-.652a28.945,28.945,0,0,1,4.209.106C93.423,12.558,93.931,13.325,94.512,15.645Z"/><path class="cls-1" d="M154.338,56.483A2.242,2.242,0,0,1,152,54.333a3.9,3.9,0,0,1,1.794-3.7c2.641-1.871,5.654-2.123,8.762-1.869.2.016.406.065.61.095,4.189.615,6.458,3.146,6.517,7.4.055,3.942.013,7.885.039,11.827a11.132,11.132,0,0,0,.223,2.139,2.135,2.135,0,0,0,2.108,1.9c.518.057,1.069.12.877.782a1.2,1.2,0,0,1-.927.608,13.24,13.24,0,0,1-2.864-.156,3.013,3.013,0,0,1-2.744-3.3c-.035-2.33-.05-4.663,0-6.993.024-1-.334-1.343-1.312-1.284-2.018.12-4.043.12-6.056.283a8.692,8.692,0,0,0-2.469.667c-2.754,1.106-3.486,3.317-2.743,6.058.6,2.213,3.176,3.478,5.693,2.784a9.306,9.306,0,0,0,2.924-1.595c.6-.446.889-.326,1.238.165a1.9,1.9,0,0,1-.369,2.431,3.652,3.652,0,0,1-1.326.752,11.378,11.378,0,0,1-8.417-.536,6.028,6.028,0,0,1-3.61-5.763,6.135,6.135,0,0,1,3.6-5.878,19.141,19.141,0,0,1,7.809-1.569c1.3-.061,2.609-.052,3.911,0,.87.035,1.178-.318,1.111-1.147-.094-1.16-.086-2.332-.241-3.483a4.356,4.356,0,0,0-3.6-3.863c-3.492-.835-6.678.573-7.708,3.435C154.612,55.162,154.5,55.838,154.338,56.483Z"/><path class="cls-1" d="M63.37,54.227a33.959,33.959,0,0,1,4.01-2.776,6.1,6.1,0,0,1,5.1.027,4.321,4.321,0,0,1,2.577,5.133,2.073,2.073,0,0,1-2.591,1.718c-.561-.137-.8-.4-.6-1.039a4.429,4.429,0,0,0,.3-1.888c-.362-2.291-2.5-2.709-4.517-1.93a5.688,5.688,0,0,0-2.937,3.171,14.157,14.157,0,0,0-1.29,5.983c-.03,2.638-.01,5.277-.006,7.916,0,2.345.245,2.665,2.415,3.485a.854.854,0,0,1,.431.669c-.011.222-.285.464-.5.632-.11.088-.331.046-.5.046q-3.86,0-7.718,0c-.516,0-1.093.034-1.09-.74,0-.745.567-.632,1.034-.656,1.75-.09,2.553-.9,2.6-2.762.048-2.123.016-4.249.017-6.373,0-2.708.008-5.415-.007-8.122a9.2,9.2,0,0,0-.149-1.632A2.053,2.053,0,0,0,57.7,53.153c-.555-.033-1.3.131-1.23-.8.063-.876.8-.563,1.282-.593.752-.045,1.508-.017,2.263-.01a2.885,2.885,0,0,1,3.2,2.172A1.512,1.512,0,0,0,63.37,54.227Z"/><path class="cls-1" d="M144.321,61.95c0,2.434-.007,4.868,0,7.3.008,1.888.84,2.775,2.7,2.905.524.037,1.088-.011,1.036.779-.048.738-.613.621-1.071.622q-4.478.015-8.957,0c-.464,0-1.026.1-1.044-.643-.018-.694.473-.717.978-.755,2.179-.164,2.9-.935,2.906-3.119q.011-7.355,0-14.708c0-2.22-.6-2.849-2.833-2.99-.5-.032-1-.119-.832-.714a1.185,1.185,0,0,1,.885-.655,22.7,22.7,0,0,1,3.182.091c1.946.185,2.7.969,2.892,2.945.088.919.138,1.845.147,2.768C144.336,57.836,144.321,59.893,144.321,61.95Z"/><path class="cls-1" d="M142.443,43.786c-1.43.01-2.385-.773-2.412-1.977a2.209,2.209,0,0,1,2.384-2.164,2.231,2.231,0,0,1,2.469,2.078C144.912,42.957,143.943,43.777,142.443,43.786Z"/></g></g></svg>