<svg xmlns="http://www.w3.org/2000/svg" width="39.8" height="39.8" viewBox="0 0 39.8 39.8"><defs><style>.cls-1{fill:#f3eeec;}</style></defs><g id="Layer_2" data-name="Layer 2"><g id="Layer_1-2" data-name="Layer 1"><path class="cls-1" d="M19.873,0A19.642,19.642,0,0,1,39.8,19.937,19.693,19.693,0,0,1,19.889,39.8,19.9,19.9,0,0,1,19.873,0Zm16.32,19.932A16.142,16.142,0,0,0,19.986,3.607,16.367,16.367,0,0,0,3.607,19.832,16.447,16.447,0,0,0,19.882,36.19C28.031,36.276,36.405,29.392,36.193,19.932Z"/><path class="cls-1" d="M10.937,23.112H15.8a1.491,1.491,0,0,1,.142.341,3.375,3.375,0,0,0,2.946,3.1c1.942.374,3.7.051,4.759-1.726a9.275,9.275,0,0,0,.259-9.3c-.844-1.7-2.685-2.263-4.905-1.816A3.545,3.545,0,0,0,16,17.035l1.187.1L13.419,20.75,9.786,17.105h1.2c.083-.3.151-.516.2-.738,1.213-5.027,5.245-7.683,10.387-6.841a9.8,9.8,0,0,1,8.387,9.266,11.383,11.383,0,0,1-2.4,8.56,10.206,10.206,0,0,1-11.8,2.668A8.212,8.212,0,0,1,10.937,23.112Z"/></g></g></svg>