<svg xmlns="http://www.w3.org/2000/svg" width="30.734" height="7.174" viewBox="0 0 30.734 7.174"><defs><style>.cls-1{fill:#000;}</style></defs><g id="Layer_2" data-name="Layer 2"><g id="Layer_1-2" data-name="Layer 1"><path class="cls-1" d="M6.46,4.93a.832.832,0,0,1-.136.442.677.677,0,0,1-.646.425,1.073,1.073,0,0,1-.544-.17,1.933,1.933,0,0,1-.485-.374Q4.42,5.016,4,4.505q-.561-.645-.7-.8.135.408.306.833.255.714.357,1.063a2.33,2.33,0,0,1,.1.654.892.892,0,0,1-.247.7.844.844,0,0,1-.586.221.816.816,0,0,1-.578-.221.907.907,0,0,1-.238-.7,2.424,2.424,0,0,1,.1-.663q.1-.357.34-1l.323-.9q-.289.306-.7.816-.306.357-.6.672a3.071,3.071,0,0,1-.535.467A1.042,1.042,0,0,1,.8,5.8a.773.773,0,0,1-.68-.408A.975.975,0,0,1,0,4.964a.878.878,0,0,1,.51-.748,2.037,2.037,0,0,1,.586-.23q.331-.075,1-.2.765-.118,1.037-.187-.341-.067-1.037-.187c-.42-.068-.748-.133-.986-.195a2.361,2.361,0,0,1-.612-.247A.879.879,0,0,1,0,2.227.836.836,0,0,1,.119,1.8a.732.732,0,0,1,.663-.425,1.085,1.085,0,0,1,.544.17A3,3,0,0,1,1.87,2q.272.281.68.773.2.255.612.731l-.34-.969Q2.6,1.888,2.5,1.547A2.2,2.2,0,0,1,2.4.918a.891.891,0,0,1,.247-.7A.848.848,0,0,1,3.23,0a.82.82,0,0,1,.578.221.914.914,0,0,1,.238.7,2.177,2.177,0,0,1-.094.612q-.093.324-.314.9c-.046.125-.1.269-.162.434s-.127.365-.195.6l.731-.833q.408-.492.637-.731a2.139,2.139,0,0,1,.468-.374,1.039,1.039,0,0,1,.544-.153.669.669,0,0,1,.391.119.958.958,0,0,1,.272.289.837.837,0,0,1,.136.442.818.818,0,0,1-.51.731,2.015,2.015,0,0,1-.587.23q-.332.076-1.011.195-.8.137-1,.187.271.069,1,.187c.487.091.833.161,1.037.213A2.048,2.048,0,0,1,5.95,4.2.818.818,0,0,1,6.46,4.93Z"/><path class="cls-1" d="M18.6,4.93a.833.833,0,0,1-.137.442.677.677,0,0,1-.646.425,1.078,1.078,0,0,1-.544-.17,1.929,1.929,0,0,1-.484-.374q-.229-.237-.655-.748-.561-.645-.7-.8.135.408.306.833c.17.476.288.831.357,1.063a2.327,2.327,0,0,1,.1.654.891.891,0,0,1-.246.7.845.845,0,0,1-.586.221.814.814,0,0,1-.578-.221.908.908,0,0,1-.239-.7,2.424,2.424,0,0,1,.1-.663c.069-.238.181-.572.341-1l.322-.9q-.288.306-.7.816-.306.357-.6.672a3.072,3.072,0,0,1-.536.467,1.036,1.036,0,0,1-.543.153.773.773,0,0,1-.681-.408.972.972,0,0,1-.118-.425.879.879,0,0,1,.509-.748,2.043,2.043,0,0,1,.587-.23q.332-.075.995-.2.764-.118,1.037-.187-.341-.067-1.037-.187-.63-.1-.986-.195a2.354,2.354,0,0,1-.613-.247.88.88,0,0,1-.492-.748.835.835,0,0,1,.118-.425.733.733,0,0,1,.663-.425,1.083,1.083,0,0,1,.544.17A2.932,2.932,0,0,1,14.007,2c.181.187.409.444.681.773q.2.255.611.731l-.34-.969q-.221-.645-.322-.986a2.166,2.166,0,0,1-.1-.629.894.894,0,0,1,.246-.7A.851.851,0,0,1,15.368,0a.818.818,0,0,1,.577.221.911.911,0,0,1,.239.7,2.213,2.213,0,0,1-.094.612c-.063.216-.167.516-.315.9-.045.125-.1.269-.161.434s-.128.365-.2.6l.731-.833q.408-.492.638-.731a2.135,2.135,0,0,1,.467-.374,1.039,1.039,0,0,1,.544-.153.667.667,0,0,1,.391.119.934.934,0,0,1,.272.289.839.839,0,0,1,.137.442.817.817,0,0,1-.511.731,2.008,2.008,0,0,1-.586.23q-.333.076-1.012.195-.8.137-1,.187c.181.046.516.108,1,.187s.833.161,1.037.213a2.048,2.048,0,0,1,.561.229A.817.817,0,0,1,18.6,4.93Z"/><path class="cls-1" d="M30.734,4.93a.839.839,0,0,1-.135.442.677.677,0,0,1-.647.425,1.076,1.076,0,0,1-.544-.17,1.929,1.929,0,0,1-.484-.374q-.229-.237-.654-.748-.561-.645-.7-.8.137.408.307.833.255.714.356,1.063a2.3,2.3,0,0,1,.1.654.892.892,0,0,1-.247.7.845.845,0,0,1-.586.221.812.812,0,0,1-.578-.221.908.908,0,0,1-.239-.7,2.462,2.462,0,0,1,.1-.663q.1-.357.341-1l.322-.9c-.192.2-.425.476-.7.816q-.306.357-.6.672a3.072,3.072,0,0,1-.536.467,1.039,1.039,0,0,1-.544.153.77.77,0,0,1-.679-.408.964.964,0,0,1-.12-.425.878.878,0,0,1,.51-.748,2.043,2.043,0,0,1,.587-.23c.221-.05.553-.115.994-.2Q27.13,3.673,27.4,3.6q-.339-.067-1.037-.187c-.419-.068-.748-.133-.985-.195a2.361,2.361,0,0,1-.612-.247.878.878,0,0,1-.494-.748.828.828,0,0,1,.12-.425.731.731,0,0,1,.663-.425,1.088,1.088,0,0,1,.544.17A3.033,3.033,0,0,1,26.145,2c.18.187.408.444.679.773.137.17.34.414.613.731l-.34-.969c-.148-.43-.255-.759-.324-.986a2.2,2.2,0,0,1-.1-.629.894.894,0,0,1,.246-.7A.849.849,0,0,1,27.505,0a.818.818,0,0,1,.577.221.91.91,0,0,1,.238.7,2.21,2.21,0,0,1-.093.612c-.063.216-.167.516-.315.9-.045.125-.1.269-.161.434s-.128.365-.2.6l.73-.833q.41-.492.638-.731a2.116,2.116,0,0,1,.468-.374,1.036,1.036,0,0,1,.544-.153.664.664,0,0,1,.39.119.974.974,0,0,1,.273.289.844.844,0,0,1,.135.442.818.818,0,0,1-.509.731,2.015,2.015,0,0,1-.587.23q-.332.076-1.011.195c-.533.091-.867.153-1,.187.182.046.516.108,1,.187s.832.161,1.036.213a2.055,2.055,0,0,1,.562.229A.818.818,0,0,1,30.734,4.93Z"/></g></g></svg>