<svg xmlns="http://www.w3.org/2000/svg" width="39.813" height="39.804" viewBox="0 0 39.813 39.804"><defs><style>.cls-1{fill:#f3eeec;}</style></defs><g id="Layer_2" data-name="Layer 2"><g id="Layer_1-2" data-name="Layer 1"><path class="cls-1" d="M19.97.005a19.639,19.639,0,0,1,19.843,20,19.814,19.814,0,0,1-20,19.8A20.028,20.028,0,0,1,0,19.857C-.042,9.753,8.43-.244,19.97.005ZM36.206,20A16.234,16.234,0,0,0,20.077,3.593C10.1,3.439,3.555,12.207,3.6,19.834A16.539,16.539,0,0,0,19.831,36.153C27.757,36.2,36.317,29.936,36.206,20Z"/><path class="cls-1" d="M19.667,16.623l-2.488,1.292A8.753,8.753,0,0,0,15.827,16.7a2.2,2.2,0,0,0-3.28,1.2,10.5,10.5,0,0,0-.092,3.635,2.049,2.049,0,0,0,1.885,1.814,2.475,2.475,0,0,0,2.68-1.147c.085-.138.178-.27.309-.468l2.317,1.177c-.987,2.334-3.589,3.548-6.452,3.051-2.746-.477-4.426-2.5-4.587-5.514-.177-3.316,1.319-5.728,4.033-6.5A5.991,5.991,0,0,1,19.667,16.623Z"/><path class="cls-1" d="M28.83,21.742l2.34,1.189a5.884,5.884,0,0,1-6.821,2.986c-2.612-.572-4.215-2.765-4.247-5.811-.035-3.214,1.531-5.53,4.188-6.2a5.811,5.811,0,0,1,6.841,2.717L28.7,17.917a8.728,8.728,0,0,0-1.35-1.214A2.245,2.245,0,0,0,24,17.961a9.411,9.411,0,0,0-.145,3.353,2.221,2.221,0,0,0,1.927,2.037C27.076,23.57,27.808,23.2,28.83,21.742Z"/></g></g></svg>