<svg xmlns="http://www.w3.org/2000/svg" width="39.8" height="39.8" viewBox="0 0 39.8 39.8"><defs><style>.cls-1{fill:#f3eeec;}</style></defs><g id="Layer_2" data-name="Layer 2"><g id="Layer_1-2" data-name="Layer 1"><path class="cls-1" d="M19.923,0A19.9,19.9,0,1,1,0,19.726,19.894,19.894,0,0,1,19.923,0Zm0,36.376A16.476,16.476,0,1,0,3.424,19.9,16.511,16.511,0,0,0,19.921,36.376Z"/><path class="cls-1" d="M22.929,32.732H16.923v-9.47L15.1,23.13v-3.6c0-1.373-.014-2.747.007-4.119.02-1.331.444-1.752,1.746-1.758,2.109-.009,4.219,0,6.329,0,.883,0,1.465.424,1.48,1.289.047,2.7.017,5.41.017,8.2l-1.748.1Z"/><path class="cls-1" d="M17.044,9.888A2.856,2.856,0,1,1,19.876,12.8,2.835,2.835,0,0,1,17.044,9.888Z"/></g></g></svg>