<svg xmlns="http://www.w3.org/2000/svg" width="7.634" height="16.414" viewBox="0 0 7.634 16.414"><defs><style>.cls-1{fill:#fff;}</style></defs><g id="Layer_2" data-name="Layer 2"><g id="Layer_1-2" data-name="Layer 1"><path class="cls-1" d="M0,5.4v2.84H1.7v8.176H5.078V8.227c.69,0,1.337-.008,1.984,0,.228.005.3-.068.312-.3.012-.328.069-.654.1-.981.053-.507.1-1.015.157-1.568H5.067V4.127c0-.142,0-.286.008-.428.049-.6.3-.834.9-.858.241-.01.483,0,.724,0,.3,0,.6,0,.907,0V0C6.848,0,6.1-.008,5.361.009A7.442,7.442,0,0,0,4.217.124a2.764,2.764,0,0,0-2.456,2.64c-.069.752-.051,1.512-.072,2.268,0,.116,0,.232,0,.366Z"/></g></g></svg>