<svg xmlns="http://www.w3.org/2000/svg" width="17.817" height="13.406" viewBox="0 0 17.817 13.406"><defs><style>.cls-1{fill:#fff;}</style></defs><g id="Layer_2" data-name="Layer 2"><g id="Layer_1-2" data-name="Layer 1"><path class="cls-1" d="M17.813.645a.648.648,0,0,0-.045-.229l0-.005c0-.008-.008-.013-.011-.02a.652.652,0,0,0-.118-.174.556.556,0,0,0-.05-.046.673.673,0,0,0-.14-.094c-.021-.011-.04-.021-.062-.03A.66.66,0,0,0,17.15,0H.667A.66.66,0,0,0,.433.047C.411.056.392.066.371.077a.7.7,0,0,0-.14.094C.214.187.2.2.181.217A.652.652,0,0,0,.063.391C.06.4.055.4.052.411l0,.005A.671.671,0,0,0,0,.645C0,.652,0,.659,0,.667V12.739a.667.667,0,0,0,.667.667H17.15a.667.667,0,0,0,.667-.667V.667C17.817.659,17.813.652,17.813.645ZM6.452,7.226,8.443,9.163a.667.667,0,0,0,.93,0l1.992-1.937,4.948,4.847H1.5ZM1.333,10.375V2.246L5.5,6.3ZM12.32,6.3l4.164-4.05v8.129Zm3.189-4.963-6.6,6.422-6.6-6.422Z"/></g></g></svg>