<svg xmlns="http://www.w3.org/2000/svg" width="17.145" height="14.014" viewBox="0 0 17.145 14.014"><defs><style>.cls-1{fill:#fff;}</style></defs><g id="Layer_2" data-name="Layer 2"><g id="Layer_1-2" data-name="Layer 1"><path class="cls-1" d="M16.667.376c-.626.225-1.236.442-1.844.666a.521.521,0,0,1-.588-.137A3.528,3.528,0,0,0,8.4,4.078a2.092,2.092,0,0,1,0,.275A10.186,10.186,0,0,1,1.117.644,3.643,3.643,0,0,0,2.166,5.357l-.051.066L.622,5.007A3.764,3.764,0,0,0,3.37,8.519h-1.5a3.646,3.646,0,0,0,3.3,2.462A7.263,7.263,0,0,1,0,12.455c.138.09.188.126.24.157A9.868,9.868,0,0,0,4.775,14a9.587,9.587,0,0,0,5.494-1.2,10.04,10.04,0,0,0,5.156-8.959.63.63,0,0,1,.263-.552,6.346,6.346,0,0,0,1.457-1.571c-.343.114-.635.225-.936.306s-.613.133-.92.2A4.09,4.09,0,0,0,16.667.376Z"/></g></g></svg>